<?xml version="1.0" encoding="iso-8859-1"?>
<!-- Generator: Adobe Illustrator 19.0.0, SVG Export Plug-In . SVG Version: 6.00 Build 0)  -->
<svg xmlns="http://www.w3.org/2000/svg" xmlns:xlink="http://www.w3.org/1999/xlink" version="1.1" id="Capa_1" x="0px" y="0px" viewBox="0 0 512 512" style="enable-background:new 0 0 512 512;" xml:space="preserve" width="512px" height="512px">
<g>
	<g>
		<path d="M409.626,240.323c-0.007-0.082-0.018-0.162-0.028-0.243c-3.294-30.561-15.532-58.48-34.042-81.078    c-0.066-0.085-0.133-0.169-0.202-0.251c-6.579-7.998-13.948-15.321-21.98-21.859c-0.229-0.208-0.466-0.4-0.713-0.575    c-22.628-18.198-50.465-30.171-80.892-33.269c-0.001,0-0.002,0-0.003,0c-5.184-0.528-10.444-0.798-15.765-0.798    c-5.321,0-10.581,0.271-15.765,0.798c-0.001,0-0.002,0-0.003,0c-30.427,3.098-58.263,15.071-80.892,33.269    c-0.247,0.174-0.484,0.367-0.713,0.575c-8.032,6.538-15.402,13.861-21.98,21.859c-0.07,0.083-0.137,0.166-0.202,0.251    c-18.51,22.598-30.749,50.517-34.042,81.078c-0.01,0.081-0.021,0.161-0.028,0.243c-0.573,5.399-0.874,10.878-0.874,16.427    c0,5.043,0.251,10.029,0.726,14.95c0.003,0.036,0.006,0.072,0.01,0.108c2.981,30.704,14.991,58.8,33.332,81.605    c0.173,0.245,0.364,0.48,0.569,0.707c6.539,8.034,13.863,15.405,21.862,21.984c0.082,0.069,0.166,0.136,0.25,0.201    c22.821,18.693,51.065,30.998,81.981,34.147c0.001,0,0.002,0,0.003,0c5.184,0.528,10.444,0.798,15.765,0.798    c5.321,0,10.581-0.271,15.765-0.798c0.001,0,0.002,0,0.003,0c30.917-3.148,59.162-15.455,81.984-34.149    c0.083-0.064,0.165-0.129,0.245-0.197c8-6.58,15.324-13.951,21.864-21.986c0.206-0.227,0.396-0.462,0.569-0.707    c18.34-22.804,30.351-50.901,33.334-81.605c0.004-0.036,0.006-0.072,0.01-0.108c0.475-4.921,0.726-9.906,0.726-14.95    C410.5,251.202,410.199,245.722,409.626,240.323z M368.907,174.921c12.381,17.038,21.004,36.972,24.645,58.579h-77.673    c-0.514-1.318-1.065-2.616-1.661-3.89L368.907,174.921z M359.402,163.211l-53.337,53.337c-3.146-3.91-6.74-7.441-10.703-10.523    l53.382-53.382C352.481,155.975,356.042,159.5,359.402,163.211z M278.5,119.073c21.528,3.506,41.418,11.95,58.461,24.138    l-54.853,54.854c-1.186-0.53-2.386-1.031-3.608-1.49V119.073z M248.5,117.453c2.484-0.132,4.984-0.203,7.5-0.203    s5.016,0.071,7.5,0.203v75.499c-2.462-0.288-4.962-0.452-7.5-0.452c-2.538,0-5.038,0.164-7.5,0.452V117.453z M233.5,119.073    v77.502c-1.222,0.459-2.422,0.961-3.607,1.49l-54.854-54.854C192.082,131.023,211.973,122.579,233.5,119.073z M163.255,152.642    l53.382,53.382c-3.963,3.082-7.557,6.613-10.703,10.523l-53.337-53.337C155.958,159.5,159.519,155.975,163.255,152.642z     M143.094,174.921l54.689,54.689c-0.596,1.274-1.148,2.573-1.661,3.89h-77.673C122.089,211.893,130.712,191.959,143.094,174.921z     M116.5,256.75c0-2.77,0.091-5.519,0.251-8.25h75.547c-0.348,2.704-0.548,5.453-0.548,8.25c0,2.28,0.124,4.531,0.356,6.75h-75.44    C116.559,261.263,116.5,259.013,116.5,256.75z M142.462,337.712c-12.33-17.241-20.833-37.395-24.263-59.212h77.348    c0.534,1.48,1.131,2.93,1.769,4.358L142.462,337.712z M151.892,349.495l53.382-53.382c3.082,3.963,6.613,7.557,10.523,10.703    l-53.337,53.337C158.75,356.792,155.225,353.231,151.892,349.495z M233.5,394.426c-21.896-3.566-42.094-12.245-59.329-24.771    l54.689-54.688c1.516,0.71,3.063,1.366,4.64,1.957V394.426z M206.75,256.75c0-27.157,22.094-49.25,49.25-49.25    s49.25,22.093,49.25,49.25S283.156,306,256,306S206.75,283.907,206.75,256.75z M278.5,394.427V376.04c0-4.142-3.357-7.5-7.5-7.5    s-7.5,3.358-7.5,7.5v20.007c-2.484,0.132-4.984,0.203-7.5,0.203s-5.016-0.071-7.5-0.203v-75.499    c2.462,0.288,4.962,0.452,7.5,0.452c2.538,0,5.038-0.164,7.5-0.452V347c0,4.142,3.357,7.5,7.5,7.5s7.5-3.358,7.5-7.5v-30.075    c1.578-0.592,3.124-1.248,4.64-1.957l54.689,54.688C320.594,382.182,300.396,390.861,278.5,394.427z M349.54,360.152    l-53.337-53.337c3.91-3.146,7.441-6.74,10.523-10.703l53.382,53.382C356.775,353.231,353.25,356.792,349.54,360.152z     M369.539,337.712l-54.854-54.854c0.638-1.428,1.234-2.877,1.769-4.358h77.348C390.371,300.317,381.868,320.471,369.539,337.712z     M395.334,263.5h-75.44c0.233-2.219,0.356-4.47,0.356-6.75c0-2.797-0.199-5.546-0.548-8.25h75.547    c0.16,2.731,0.251,5.48,0.251,8.25C395.5,259.013,395.441,261.263,395.334,263.5z" fill="#ff9800"/>
	</g>
</g>
<g>
	<g>
		<path d="M489.5,233.5h-16.167c-4.143,0-7.5,3.358-7.5,7.5c0,4.142,3.357,7.5,7.5,7.5H489.5c4.136,0,7.5,3.364,7.5,7.5    c0,2-0.779,3.877-2.213,5.306c-1.41,1.415-3.287,2.194-5.287,2.194h-49.136c0.081-2.241,0.136-4.489,0.136-6.75    c0-2.765-0.073-5.514-0.194-8.25h2.194c4.143,0,7.5-3.358,7.5-7.5c0-4.142-3.357-7.5-7.5-7.5h-3.46    c-4.287-33.947-17.833-65.049-38.022-90.69l36.015-36.016c4.242-4.257,6.578-9.905,6.578-15.904    c0-5.999-2.336-11.647-6.592-15.918c-8.771-8.757-23.045-8.757-31.822,0.004l-36.103,36.103    C343.427,91.107,312.367,77.76,278.5,73.623V22.5c0-6.018-2.347-11.67-6.588-15.894C267.668,2.346,262.017,0,256,0    c-12.406,0-22.5,10.093-22.5,22.5v51.118c-26.76,3.267-52.485,12.345-75.418,26.732c-5.271,3.307-10.354,6.87-15.239,10.666    l-36.044-36.045c-8.773-8.756-23.047-8.757-31.826,0.009c-8.758,8.772-8.758,23.046,0.004,31.822l35.953,35.954    c-7.502,9.538-14.089,19.819-19.615,30.729c-1.872,3.695-0.394,8.208,3.302,10.08c3.694,1.873,8.207,0.394,10.079-3.301    c10.392-20.516,24.823-38.641,42.337-53.348c0.017-0.014,0.032-0.029,0.049-0.042c5.979-5.017,12.313-9.639,18.973-13.817    C192.965,96.174,224.068,87.25,256,87.25c93.463,0,169.5,76.038,169.5,169.5s-76.037,169.5-169.5,169.5S86.5,350.212,86.5,256.75    c0-16.842,2.462-33.471,7.316-49.425c1.206-3.963-1.028-8.153-4.991-9.359c-3.96-1.203-8.152,1.029-9.358,4.992    c-3.035,9.973-5.206,20.186-6.509,30.542H22.5C10.094,233.5,0,243.593,0,256s10.094,22.5,22.5,22.5h50.288    c4.03,34.158,17.422,65.487,37.541,91.343L74.972,405.2c-8.758,8.772-8.758,23.046,0.009,31.827    c4.386,4.378,10.145,6.568,15.906,6.567c5.761-0.001,11.527-2.191,15.916-6.572l35.256-35.256    c25.829,20.337,57.202,33.927,91.44,38.109V489.5c0,12.407,10.094,22.5,22.5,22.5s22.5-10.093,22.5-22.5v-49.624    c34.238-4.182,65.611-17.771,91.44-38.109l35.265,35.265c4.256,4.242,9.904,6.578,15.905,6.578c6,0,11.648-2.336,15.917-6.591    c8.758-8.772,8.758-23.046-0.004-31.822l-35.353-35.354c20.119-25.856,33.511-57.185,37.541-91.343h50.29    c6.017,0,11.668-2.346,15.893-6.586C509.653,267.67,512,262.018,512,256C512,243.593,501.906,233.5,489.5,233.5z M120.708,131.322    l-35.12-35.121c-2.924-2.928-2.924-7.693-0.009-10.613c2.929-2.922,7.694-2.923,10.617-0.004l35.16,35.16    C127.664,124.128,124.109,127.654,120.708,131.322z M263.5,72.415c-2.489-0.1-4.987-0.165-7.5-0.165    c-2.505,0-5.005,0.056-7.5,0.157V22.5c0-4.136,3.364-7.5,7.5-7.5c2,0,3.877,0.779,5.307,2.214    c1.414,1.409,2.193,3.286,2.193,5.286V72.415z M380.59,120.798l35.209-35.21c2.928-2.924,7.694-2.923,10.608-0.014    c1.421,1.426,2.203,3.314,2.203,5.316c0,2.002-0.782,3.89-2.194,5.307l-35.186,35.187    C387.826,127.715,384.279,124.181,380.59,120.798z M71.636,263.5H22.5c-4.136,0-7.5-3.364-7.5-7.5s3.364-7.5,7.5-7.5h49.189    c-0.121,2.744-0.189,5.494-0.189,8.25C71.5,259.011,71.555,261.259,71.636,263.5z M96.201,426.412    c-2.93,2.923-7.693,2.924-10.613,0.009c-2.924-2.929-2.924-7.694-0.004-10.618l34.463-34.463    c3.383,3.689,6.917,7.236,10.586,10.64L96.201,426.412z M263.5,489.5c0,4.136-3.364,7.5-7.5,7.5s-7.5-3.364-7.5-7.5v-48.415    c2.489,0.1,4.987,0.165,7.5,0.165s5.011-0.065,7.5-0.165V489.5z M426.412,415.799c2.924,2.928,2.924,7.693,0.013,10.609    c-1.424,1.42-3.312,2.202-5.314,2.202c-2.002,0-3.892-0.782-5.307-2.193l-34.437-34.437c3.669-3.404,7.203-6.951,10.586-10.64    L426.412,415.799z" fill="#ff9800"/>
	</g>
</g>
<g>
</g>
<g>
</g>
<g>
</g>
<g>
</g>
<g>
</g>
<g>
</g>
<g>
</g>
<g>
</g>
<g>
</g>
<g>
</g>
<g>
</g>
<g>
</g>
<g>
</g>
<g>
</g>
<g>
</g>
</svg>
